<svg width="1885" height="42" viewBox="0 0 1885 42" fill="none" xmlns="http://www.w3.org/2000/svg">
<rect x="1147" y="21" width="738" height="5" rx="2.5" fill="#8F837C"/>
<rect y="21" width="746" height="5" rx="2.5" fill="#8F837C"/>
<path d="M784.124 21.896C785.732 22.328 786.956 23.072 787.796 24.128C788.636 25.16 789.056 26.456 789.056 28.016C789.056 30.224 788.24 31.94 786.608 33.164C784.976 34.388 782.612 35 779.516 35H767.564V9.8H778.832C781.664 9.8 783.872 10.364 785.456 11.492C787.04 12.62 787.832 14.216 787.832 16.28C787.832 17.6 787.508 18.74 786.86 19.7C786.236 20.66 785.324 21.392 784.124 21.896ZM772.172 20.564H778.436C779.948 20.564 781.1 20.264 781.892 19.664C782.684 19.064 783.08 18.176 783.08 17C783.08 15.824 782.684 14.936 781.892 14.336C781.1 13.712 779.948 13.4 778.436 13.4H772.172V20.564ZM779.372 31.4C782.684 31.4 784.34 30.152 784.34 27.656C784.34 25.208 782.684 23.984 779.372 23.984H772.172V31.4H779.372ZM802.631 35.252C800.639 35.252 798.851 34.832 797.267 33.992C795.683 33.152 794.447 31.988 793.559 30.5C792.671 28.988 792.227 27.284 792.227 25.388C792.227 23.492 792.671 21.8 793.559 20.312C794.447 18.824 795.671 17.66 797.231 16.82C798.815 15.98 800.615 15.56 802.631 15.56C804.527 15.56 806.183 15.944 807.599 16.712C809.039 17.48 810.119 18.584 810.839 20.024L807.383 22.04C806.831 21.152 806.135 20.492 805.295 20.06C804.479 19.604 803.579 19.376 802.595 19.376C800.915 19.376 799.523 19.928 798.419 21.032C797.315 22.112 796.763 23.564 796.763 25.388C796.763 27.212 797.303 28.676 798.383 29.78C799.487 30.86 800.891 31.4 802.595 31.4C803.579 31.4 804.479 31.184 805.295 30.752C806.135 30.296 806.831 29.624 807.383 28.736L810.839 30.752C810.095 32.192 809.003 33.308 807.563 34.1C806.147 34.868 804.503 35.252 802.631 35.252ZM832.52 25.496C832.52 25.808 832.496 26.252 832.448 26.828H817.364C817.628 28.244 818.312 29.372 819.416 30.212C820.544 31.028 821.936 31.436 823.592 31.436C825.704 31.436 827.444 30.74 828.812 29.348L831.224 32.12C830.36 33.152 829.268 33.932 827.948 34.46C826.628 34.988 825.14 35.252 823.484 35.252C821.372 35.252 819.512 34.832 817.904 33.992C816.296 33.152 815.048 31.988 814.16 30.5C813.296 28.988 812.864 27.284 812.864 25.388C812.864 23.516 813.284 21.836 814.124 20.348C814.988 18.836 816.176 17.66 817.688 16.82C819.2 15.98 820.904 15.56 822.8 15.56C824.672 15.56 826.34 15.98 827.804 16.82C829.292 17.636 830.444 18.8 831.26 20.312C832.1 21.8 832.52 23.528 832.52 25.496ZM822.8 19.16C821.36 19.16 820.136 19.592 819.128 20.456C818.144 21.296 817.544 22.424 817.328 23.84H828.236C828.044 22.448 827.456 21.32 826.472 20.456C825.488 19.592 824.264 19.16 822.8 19.16ZM867.911 31.184V39.284H863.699V35H848.867V39.284H844.691V31.184H845.591C846.815 31.136 847.643 30.356 848.075 28.844C848.531 27.308 848.831 25.148 848.975 22.364L849.227 15.776H865.067V31.184H867.911ZM853.079 22.688C852.983 24.896 852.803 26.696 852.539 28.088C852.275 29.48 851.795 30.512 851.099 31.184H860.567V19.592H853.187L853.079 22.688ZM889.354 15.776V35H884.854V19.592H877.654L877.474 23.408C877.354 25.952 877.114 28.088 876.754 29.816C876.418 31.52 875.83 32.876 874.99 33.884C874.174 34.868 873.046 35.36 871.606 35.36C870.934 35.36 870.106 35.228 869.122 34.964L869.338 31.184C869.674 31.256 869.962 31.292 870.202 31.292C871.114 31.292 871.798 30.932 872.254 30.212C872.71 29.468 872.998 28.592 873.118 27.584C873.262 26.552 873.382 25.088 873.478 23.192L873.802 15.776H889.354ZM911.651 15.776V35H907.619V29.204H902.543L898.619 35H893.795L898.331 28.592C896.939 28.112 895.871 27.38 895.127 26.396C894.407 25.388 894.047 24.152 894.047 22.688C894.047 20.48 894.827 18.776 896.387 17.576C897.947 16.376 900.095 15.776 902.831 15.776H911.651ZM902.975 19.556C900.071 19.556 898.619 20.648 898.619 22.832C898.619 24.992 900.023 26.072 902.831 26.072H907.619V19.556H902.975ZM946.085 15.776V35H941.621V19.592H932.153V35H927.653V15.776H946.085ZM962.813 15.56C964.685 15.56 966.353 15.968 967.817 16.784C969.305 17.6 970.469 18.752 971.309 20.24C972.149 21.728 972.569 23.444 972.569 25.388C972.569 27.332 972.149 29.06 971.309 30.572C970.469 32.06 969.305 33.212 967.817 34.028C966.353 34.844 964.685 35.252 962.813 35.252C960.221 35.252 958.169 34.388 956.657 32.66V41.984H952.157V15.776H956.441V18.296C957.185 17.384 958.097 16.7 959.177 16.244C960.281 15.788 961.493 15.56 962.813 15.56ZM962.309 31.4C963.965 31.4 965.321 30.848 966.377 29.744C967.457 28.64 967.997 27.188 967.997 25.388C967.997 23.588 967.457 22.136 966.377 21.032C965.321 19.928 963.965 19.376 962.309 19.376C961.229 19.376 960.257 19.628 959.393 20.132C958.529 20.612 957.845 21.308 957.341 22.22C956.837 23.132 956.585 24.188 956.585 25.388C956.585 26.588 956.837 27.644 957.341 28.556C957.845 29.468 958.529 30.176 959.393 30.68C960.257 31.16 961.229 31.4 962.309 31.4ZM977.047 15.776H981.547V28.448L992.167 15.776H996.271V35H991.771V22.328L981.187 35H977.047V15.776ZM1014.35 35L1009.42 28.34L1004.45 35H999.481L1006.97 25.244L999.805 15.776H1004.81L1009.52 22.076L1014.24 15.776H1019.1L1011.9 25.172L1019.42 35H1014.35ZM1030.58 35.252C1028.64 35.252 1026.88 34.832 1025.32 33.992C1023.76 33.152 1022.54 31.988 1021.65 30.5C1020.79 28.988 1020.36 27.284 1020.36 25.388C1020.36 23.492 1020.79 21.8 1021.65 20.312C1022.54 18.824 1023.76 17.66 1025.32 16.82C1026.88 15.98 1028.64 15.56 1030.58 15.56C1032.55 15.56 1034.31 15.98 1035.87 16.82C1037.43 17.66 1038.64 18.824 1039.51 20.312C1040.4 21.8 1040.84 23.492 1040.84 25.388C1040.84 27.284 1040.4 28.988 1039.51 30.5C1038.64 31.988 1037.43 33.152 1035.87 33.992C1034.31 34.832 1032.55 35.252 1030.58 35.252ZM1030.58 31.4C1032.24 31.4 1033.6 30.848 1034.68 29.744C1035.76 28.64 1036.3 27.188 1036.3 25.388C1036.3 23.588 1035.76 22.136 1034.68 21.032C1033.6 19.928 1032.24 19.376 1030.58 19.376C1028.92 19.376 1027.56 19.928 1026.48 21.032C1025.42 22.136 1024.89 23.588 1024.89 25.388C1024.89 27.188 1025.42 28.64 1026.48 29.744C1027.56 30.848 1028.92 31.4 1030.58 31.4ZM1062.9 27.296H1059.66V35H1055.2V27.296H1051.96L1047.28 35H1041.95L1048.25 25.064L1042.42 15.776H1047.21L1051.89 23.552H1055.2V15.776H1059.66V23.552H1062.94L1067.66 15.776H1072.44L1066.61 25.064L1072.95 35H1067.58L1062.9 27.296ZM1093.66 25.496C1093.66 25.808 1093.64 26.252 1093.59 26.828H1078.5C1078.77 28.244 1079.45 29.372 1080.56 30.212C1081.68 31.028 1083.08 31.436 1084.73 31.436C1086.84 31.436 1088.58 30.74 1089.95 29.348L1092.36 32.12C1091.5 33.152 1090.41 33.932 1089.09 34.46C1087.77 34.988 1086.28 35.252 1084.62 35.252C1082.51 35.252 1080.65 34.832 1079.04 33.992C1077.44 33.152 1076.19 31.988 1075.3 30.5C1074.44 28.988 1074 27.284 1074 25.388C1074 23.516 1074.42 21.836 1075.26 20.348C1076.13 18.836 1077.32 17.66 1078.83 16.82C1080.34 15.98 1082.04 15.56 1083.94 15.56C1085.81 15.56 1087.48 15.98 1088.94 16.82C1090.43 17.636 1091.58 18.8 1092.4 20.312C1093.24 21.8 1093.66 23.528 1093.66 25.496ZM1083.94 19.16C1082.5 19.16 1081.28 19.592 1080.27 20.456C1079.28 21.296 1078.68 22.424 1078.47 23.84H1089.38C1089.18 22.448 1088.6 21.32 1087.61 20.456C1086.63 19.592 1085.4 19.16 1083.94 19.16ZM1098.58 15.776H1103.08V28.448L1113.7 15.776H1117.81V35H1113.31V22.328L1102.72 35H1098.58V15.776ZM1107.91 13.508C1105.96 13.508 1104.47 13.064 1103.44 12.176C1102.43 11.264 1101.92 9.944 1101.89 8.216H1104.88C1104.91 9.08 1105.17 9.764 1105.67 10.268C1106.2 10.772 1106.93 11.024 1107.87 11.024C1108.78 11.024 1109.5 10.772 1110.03 10.268C1110.58 9.764 1110.87 9.08 1110.89 8.216H1113.95C1113.93 9.944 1113.4 11.264 1112.37 12.176C1111.34 13.064 1109.85 13.508 1107.91 13.508Z" fill="#2F2F2F"/>
</svg>
