<svg width="1896" height="43" viewBox="0 0 1896 43" fill="none" xmlns="http://www.w3.org/2000/svg">
<rect x="1296" y="19" width="600" height="5" rx="2.5" fill="#8F837C"/>
<rect y="19" width="600" height="5" rx="2.5" fill="#8F837C"/>
<path d="M704.689 9.8V35H673.801V9.8H676.429V32.696H687.949V9.8H690.577V32.696H702.061V9.8H704.689ZM719.44 26.576H715.12V35H712.564V16.064H715.12V24.38H719.476L726.136 16.064H728.908L721.456 25.244L729.448 35H726.424L719.44 26.576ZM739.646 15.92C742.118 15.92 744.014 16.544 745.334 17.792C746.654 19.016 747.314 20.84 747.314 23.264V35H744.866V32.048C744.29 33.032 743.438 33.8 742.31 34.352C741.206 34.904 739.886 35.18 738.35 35.18C736.238 35.18 734.558 34.676 733.31 33.668C732.062 32.66 731.438 31.328 731.438 29.672C731.438 28.064 732.014 26.768 733.166 25.784C734.342 24.8 736.202 24.308 738.746 24.308H744.758V23.156C744.758 21.524 744.302 20.288 743.39 19.448C742.478 18.584 741.146 18.152 739.394 18.152C738.194 18.152 737.042 18.356 735.938 18.764C734.834 19.148 733.886 19.688 733.094 20.384L731.942 18.476C732.902 17.66 734.054 17.036 735.398 16.604C736.742 16.148 738.158 15.92 739.646 15.92ZM738.746 33.164C740.186 33.164 741.422 32.84 742.454 32.192C743.486 31.52 744.254 30.56 744.758 29.312V26.216H738.818C735.578 26.216 733.958 27.344 733.958 29.6C733.958 30.704 734.378 31.58 735.218 32.228C736.058 32.852 737.234 33.164 738.746 33.164ZM776.978 25.496C776.978 28.448 776.006 30.764 774.062 32.444C772.118 34.124 769.37 35.036 765.818 35.18V41.984H763.334V35.216C759.806 35.072 757.07 34.16 755.126 32.48C753.206 30.776 752.246 28.448 752.246 25.496C752.246 22.568 753.206 20.276 755.126 18.62C757.07 16.964 759.806 16.064 763.334 15.92V8.288H765.818V15.92C769.37 16.088 772.118 17 774.062 18.656C776.006 20.312 776.978 22.592 776.978 25.496ZM754.766 25.496C754.766 27.752 755.486 29.516 756.926 30.788C758.39 32.06 760.526 32.78 763.334 32.948V18.188C760.55 18.332 758.426 19.04 756.962 20.312C755.498 21.56 754.766 23.288 754.766 25.496ZM765.818 32.948C768.626 32.804 770.762 32.096 772.226 30.824C773.714 29.552 774.458 27.776 774.458 25.496C774.458 23.264 773.714 21.524 772.226 20.276C770.762 19.028 768.626 18.332 765.818 18.188V32.948ZM781.26 24.128H790.692V26.36H781.26V24.128ZM803.358 26.576H799.038V35H796.482V16.064H799.038V24.38H803.394L810.054 16.064H812.826L805.374 25.244L813.366 35H810.342L803.358 26.576ZM832.402 16.064L822.934 37.268C822.166 39.044 821.278 40.304 820.27 41.048C819.262 41.792 818.05 42.164 816.634 42.164C815.722 42.164 814.87 42.02 814.078 41.732C813.286 41.444 812.602 41.012 812.026 40.436L813.214 38.528C814.174 39.488 815.326 39.968 816.67 39.968C817.534 39.968 818.266 39.728 818.866 39.248C819.49 38.768 820.066 37.952 820.594 36.8L821.422 34.964L812.962 16.064H815.626L822.754 32.156L829.882 16.064H832.402ZM853.376 16.064V35H850.82V18.332H838.94V35H836.384V16.064H853.376ZM877.202 26.324H861.362C861.506 28.292 862.262 29.888 863.63 31.112C864.998 32.312 866.726 32.912 868.814 32.912C869.99 32.912 871.07 32.708 872.054 32.3C873.038 31.868 873.89 31.244 874.61 30.428L876.05 32.084C875.21 33.092 874.154 33.86 872.882 34.388C871.634 34.916 870.254 35.18 868.742 35.18C866.798 35.18 865.07 34.772 863.558 33.956C862.07 33.116 860.906 31.964 860.066 30.5C859.226 29.036 858.806 27.38 858.806 25.532C858.806 23.684 859.202 22.028 859.994 20.564C860.81 19.1 861.914 17.96 863.306 17.144C864.722 16.328 866.306 15.92 868.058 15.92C869.81 15.92 871.382 16.328 872.774 17.144C874.166 17.96 875.258 19.1 876.05 20.564C876.842 22.004 877.238 23.66 877.238 25.532L877.202 26.324ZM868.058 18.116C866.234 18.116 864.698 18.704 863.45 19.88C862.226 21.032 861.53 22.544 861.362 24.416H874.79C874.622 22.544 873.914 21.032 872.666 19.88C871.442 18.704 869.906 18.116 868.058 18.116ZM909.058 28.268H895.018L891.994 35H889.222L900.742 9.8H903.37L914.89 35H912.082L909.058 28.268ZM908.086 26.108L902.038 12.572L895.99 26.108H908.086ZM919.107 16.064H921.663V31.112L934.299 16.064H936.567V35H934.011V19.952L921.411 35H919.107V16.064ZM927.711 13.328C926.079 13.328 924.783 12.92 923.823 12.104C922.863 11.288 922.371 10.136 922.347 8.648H924.183C924.207 9.584 924.543 10.34 925.191 10.916C925.839 11.468 926.679 11.744 927.711 11.744C928.743 11.744 929.583 11.468 930.231 10.916C930.903 10.34 931.251 9.584 931.275 8.648H933.111C933.087 10.136 932.583 11.288 931.599 12.104C930.639 12.92 929.343 13.328 927.711 13.328ZM951.812 35.18C949.94 35.18 948.26 34.772 946.772 33.956C945.308 33.14 944.156 32 943.316 30.536C942.476 29.048 942.056 27.38 942.056 25.532C942.056 23.684 942.476 22.028 943.316 20.564C944.156 19.1 945.308 17.96 946.772 17.144C948.26 16.328 949.94 15.92 951.812 15.92C953.444 15.92 954.896 16.244 956.168 16.892C957.464 17.516 958.484 18.44 959.228 19.664L957.32 20.96C956.696 20.024 955.904 19.328 954.944 18.872C953.984 18.392 952.94 18.152 951.812 18.152C950.444 18.152 949.208 18.464 948.104 19.088C947.024 19.688 946.172 20.552 945.548 21.68C944.948 22.808 944.648 24.092 944.648 25.532C944.648 26.996 944.948 28.292 945.548 29.42C946.172 30.524 947.024 31.388 948.104 32.012C949.208 32.612 950.444 32.912 951.812 32.912C952.94 32.912 953.984 32.684 954.944 32.228C955.904 31.772 956.696 31.076 957.32 30.14L959.228 31.436C958.484 32.66 957.464 33.596 956.168 34.244C954.872 34.868 953.42 35.18 951.812 35.18ZM973.287 16.532C975.039 16.532 976.599 16.928 977.967 17.72C979.359 18.488 980.439 19.58 981.207 20.996C981.975 22.388 982.359 23.984 982.359 25.784C982.359 27.632 981.951 29.276 981.135 30.716C980.343 32.132 979.227 33.236 977.787 34.028C976.347 34.82 974.691 35.216 972.819 35.216C969.675 35.216 967.239 34.112 965.511 31.904C963.783 29.696 962.919 26.648 962.919 22.76C962.919 18.704 963.687 15.596 965.223 13.436C966.783 11.276 969.207 9.812 972.495 9.044L980.991 7.1L981.423 9.44L973.431 11.276C970.719 11.876 968.727 12.944 967.455 14.48C966.183 15.992 965.487 18.236 965.367 21.212C966.135 19.748 967.203 18.608 968.571 17.792C969.939 16.952 971.511 16.532 973.287 16.532ZM972.891 33.092C974.211 33.092 975.387 32.792 976.419 32.192C977.475 31.568 978.291 30.704 978.867 29.6C979.467 28.496 979.767 27.248 979.767 25.856C979.767 24.464 979.479 23.24 978.903 22.184C978.327 21.128 977.511 20.312 976.455 19.736C975.423 19.136 974.235 18.836 972.891 18.836C971.547 18.836 970.347 19.136 969.291 19.736C968.259 20.312 967.443 21.128 966.843 22.184C966.267 23.24 965.979 24.464 965.979 25.856C965.979 27.248 966.267 28.496 966.843 29.6C967.443 30.704 968.271 31.568 969.327 32.192C970.383 32.792 971.571 33.092 972.891 33.092ZM1004.4 26.324H988.557C988.701 28.292 989.457 29.888 990.825 31.112C992.193 32.312 993.921 32.912 996.009 32.912C997.185 32.912 998.265 32.708 999.249 32.3C1000.23 31.868 1001.09 31.244 1001.81 30.428L1003.25 32.084C1002.41 33.092 1001.35 33.86 1000.08 34.388C998.829 34.916 997.449 35.18 995.937 35.18C993.993 35.18 992.265 34.772 990.753 33.956C989.265 33.116 988.101 31.964 987.261 30.5C986.421 29.036 986.001 27.38 986.001 25.532C986.001 23.684 986.397 22.028 987.189 20.564C988.005 19.1 989.109 17.96 990.501 17.144C991.917 16.328 993.501 15.92 995.253 15.92C997.005 15.92 998.577 16.328 999.969 17.144C1001.36 17.96 1002.45 19.1 1003.25 20.564C1004.04 22.004 1004.43 23.66 1004.43 25.532L1004.4 26.324ZM995.253 18.116C993.429 18.116 991.893 18.704 990.645 19.88C989.421 21.032 988.725 22.544 988.557 24.416H1001.99C1001.82 22.544 1001.11 21.032 999.861 19.88C998.637 18.704 997.101 18.116 995.253 18.116ZM1019.85 15.92C1021.62 15.92 1023.23 16.328 1024.67 17.144C1026.11 17.936 1027.24 19.064 1028.06 20.528C1028.87 21.992 1029.28 23.66 1029.28 25.532C1029.28 27.428 1028.87 29.108 1028.06 30.572C1027.24 32.036 1026.11 33.176 1024.67 33.992C1023.26 34.784 1021.65 35.18 1019.85 35.18C1018.31 35.18 1016.92 34.868 1015.67 34.244C1014.45 33.596 1013.44 32.66 1012.65 31.436V41.984H1010.09V16.064H1012.54V19.808C1013.31 18.56 1014.32 17.6 1015.56 16.928C1016.84 16.256 1018.26 15.92 1019.85 15.92ZM1019.67 32.912C1020.99 32.912 1022.19 32.612 1023.27 32.012C1024.35 31.388 1025.19 30.512 1025.79 29.384C1026.41 28.256 1026.72 26.972 1026.72 25.532C1026.72 24.092 1026.41 22.82 1025.79 21.716C1025.19 20.588 1024.35 19.712 1023.27 19.088C1022.19 18.464 1020.99 18.152 1019.67 18.152C1018.32 18.152 1017.11 18.464 1016.03 19.088C1014.98 19.712 1014.14 20.588 1013.51 21.716C1012.91 22.82 1012.61 24.092 1012.61 25.532C1012.61 26.972 1012.91 28.256 1013.51 29.384C1014.14 30.512 1014.98 31.388 1016.03 32.012C1017.11 32.612 1018.32 32.912 1019.67 32.912ZM1048.16 18.332H1037.33V35H1034.77V16.064H1048.16V18.332ZM1081.65 9.8V35H1079.03V12.104H1066.86L1066.57 20.528C1066.45 24.008 1066.16 26.816 1065.71 28.952C1065.27 31.064 1064.6 32.648 1063.69 33.704C1062.78 34.736 1061.57 35.252 1060.05 35.252C1059.41 35.252 1058.73 35.168 1058.04 35L1058.25 32.624C1058.66 32.72 1059.06 32.768 1059.44 32.768C1060.5 32.768 1061.35 32.348 1062 31.508C1062.67 30.668 1063.17 29.372 1063.51 27.62C1063.85 25.844 1064.07 23.504 1064.19 20.6L1064.55 9.8H1081.65ZM1097.36 35.18C1095.53 35.18 1093.89 34.772 1092.42 33.956C1090.96 33.116 1089.81 31.964 1088.97 30.5C1088.13 29.036 1087.71 27.38 1087.71 25.532C1087.71 23.684 1088.13 22.028 1088.97 20.564C1089.81 19.1 1090.96 17.96 1092.42 17.144C1093.89 16.328 1095.53 15.92 1097.36 15.92C1099.18 15.92 1100.82 16.328 1102.29 17.144C1103.75 17.96 1104.89 19.1 1105.71 20.564C1106.55 22.028 1106.97 23.684 1106.97 25.532C1106.97 27.38 1106.55 29.036 1105.71 30.5C1104.89 31.964 1103.75 33.116 1102.29 33.956C1100.82 34.772 1099.18 35.18 1097.36 35.18ZM1097.36 32.912C1098.7 32.912 1099.9 32.612 1100.96 32.012C1102.04 31.388 1102.88 30.512 1103.48 29.384C1104.08 28.256 1104.38 26.972 1104.38 25.532C1104.38 24.092 1104.08 22.808 1103.48 21.68C1102.88 20.552 1102.04 19.688 1100.96 19.088C1099.9 18.464 1098.7 18.152 1097.36 18.152C1096.01 18.152 1094.8 18.464 1093.72 19.088C1092.66 19.688 1091.82 20.552 1091.2 21.68C1090.6 22.808 1090.3 24.092 1090.3 25.532C1090.3 26.972 1090.6 28.256 1091.2 29.384C1091.82 30.512 1092.66 31.388 1093.72 32.012C1094.8 32.612 1096.01 32.912 1097.36 32.912ZM1135.29 25.496C1135.29 28.448 1134.32 30.764 1132.37 32.444C1130.43 34.124 1127.68 35.036 1124.13 35.18V41.984H1121.65V35.216C1118.12 35.072 1115.38 34.16 1113.44 32.48C1111.52 30.776 1110.56 28.448 1110.56 25.496C1110.56 22.568 1111.52 20.276 1113.44 18.62C1115.38 16.964 1118.12 16.064 1121.65 15.92V8.288H1124.13V15.92C1127.68 16.088 1130.43 17 1132.37 18.656C1134.32 20.312 1135.29 22.592 1135.29 25.496ZM1113.08 25.496C1113.08 27.752 1113.8 29.516 1115.24 30.788C1116.7 32.06 1118.84 32.78 1121.65 32.948V18.188C1118.86 18.332 1116.74 19.04 1115.27 20.312C1113.81 21.56 1113.08 23.288 1113.08 25.496ZM1124.13 32.948C1126.94 32.804 1129.07 32.096 1130.54 30.824C1132.03 29.552 1132.77 27.776 1132.77 25.496C1132.77 23.264 1132.03 21.524 1130.54 20.276C1129.07 19.028 1126.94 18.332 1124.13 18.188V32.948ZM1153.31 18.332H1146.15V35H1143.59V18.332H1136.43V16.064H1153.31V18.332ZM1181.87 32.696V35H1164.2V33.164L1174.67 22.904C1175.99 21.608 1176.88 20.492 1177.34 19.556C1177.82 18.596 1178.06 17.636 1178.06 16.676C1178.06 15.188 1177.54 14.036 1176.51 13.22C1175.5 12.38 1174.05 11.96 1172.15 11.96C1169.2 11.96 1166.91 12.896 1165.28 14.768L1163.44 13.184C1164.43 12.032 1165.67 11.144 1167.19 10.52C1168.72 9.896 1170.45 9.584 1172.37 9.584C1174.94 9.584 1176.97 10.196 1178.45 11.42C1179.97 12.62 1180.72 14.276 1180.72 16.388C1180.72 17.684 1180.43 18.932 1179.86 20.132C1179.28 21.332 1178.19 22.712 1176.58 24.272L1168.01 32.696H1181.87ZM1202.77 9.8V11.636L1192.22 35H1189.42L1199.78 12.104H1186.82V16.82H1184.27V9.8H1202.77ZM1215.53 35.216C1213.58 35.216 1211.84 34.7 1210.31 33.668C1208.8 32.636 1207.61 31.16 1206.74 29.24C1205.9 27.296 1205.48 25.016 1205.48 22.4C1205.48 19.784 1205.9 17.516 1206.74 15.596C1207.61 13.652 1208.8 12.164 1210.31 11.132C1211.84 10.1 1213.58 9.584 1215.53 9.584C1217.47 9.584 1219.2 10.1 1220.71 11.132C1222.25 12.164 1223.45 13.652 1224.31 15.596C1225.18 17.516 1225.61 19.784 1225.61 22.4C1225.61 25.016 1225.18 27.296 1224.31 29.24C1223.45 31.16 1222.25 32.636 1220.71 33.668C1219.2 34.7 1217.47 35.216 1215.53 35.216ZM1215.53 32.84C1216.99 32.84 1218.28 32.432 1219.38 31.616C1220.51 30.8 1221.38 29.612 1222.01 28.052C1222.63 26.492 1222.94 24.608 1222.94 22.4C1222.94 20.192 1222.63 18.308 1222.01 16.748C1221.38 15.188 1220.51 14 1219.38 13.184C1218.28 12.368 1216.99 11.96 1215.53 11.96C1214.06 11.96 1212.77 12.368 1211.64 13.184C1210.54 14 1209.67 15.188 1209.05 16.748C1208.42 18.308 1208.11 20.192 1208.11 22.4C1208.11 24.608 1208.42 26.492 1209.05 28.052C1209.67 29.612 1210.54 30.8 1211.64 31.616C1212.77 32.432 1214.06 32.84 1215.53 32.84Z" fill="#2F2F2F"/>
</svg>
