<svg width="1866" height="44" viewBox="0 0 1866 44" fill="none" xmlns="http://www.w3.org/2000/svg">
<path d="M865.816 24.38H861.136V35H856.528V9.8H861.136V20.348H865.96L873.196 9.8H878.164L869.56 22.004L878.488 35H873.196L865.816 24.38ZM889.483 35.252C887.539 35.252 885.787 34.832 884.227 33.992C882.667 33.152 881.443 31.988 880.555 30.5C879.691 28.988 879.259 27.284 879.259 25.388C879.259 23.492 879.691 21.8 880.555 20.312C881.443 18.824 882.667 17.66 884.227 16.82C885.787 15.98 887.539 15.56 889.483 15.56C891.451 15.56 893.215 15.98 894.775 16.82C896.335 17.66 897.547 18.824 898.411 20.312C899.299 21.8 899.743 23.492 899.743 25.388C899.743 27.284 899.299 28.988 898.411 30.5C897.547 31.988 896.335 33.152 894.775 33.992C893.215 34.832 891.451 35.252 889.483 35.252ZM889.483 31.4C891.139 31.4 892.507 30.848 893.587 29.744C894.667 28.64 895.207 27.188 895.207 25.388C895.207 23.588 894.667 22.136 893.587 21.032C892.507 19.928 891.139 19.376 889.483 19.376C887.827 19.376 886.459 19.928 885.379 21.032C884.323 22.136 883.795 23.588 883.795 25.388C883.795 27.188 884.323 28.64 885.379 29.744C886.459 30.848 887.827 31.4 889.483 31.4ZM904.188 15.776H908.688V23.588H918.372V15.776H922.872V35H918.372V27.404H908.688V35H904.188V15.776ZM944.131 19.592H937.399V35H932.899V19.592H926.131V15.776H944.131V19.592ZM954.559 15.56C957.391 15.56 959.551 16.244 961.039 17.612C962.551 18.956 963.307 20.996 963.307 23.732V35H959.059V32.66C958.507 33.5 957.715 34.148 956.683 34.604C955.675 35.036 954.451 35.252 953.011 35.252C951.571 35.252 950.311 35.012 949.231 34.532C948.151 34.028 947.311 33.344 946.711 32.48C946.135 31.592 945.847 30.596 945.847 29.492C945.847 27.764 946.483 26.384 947.755 25.352C949.051 24.296 951.079 23.768 953.839 23.768H958.807V23.48C958.807 22.136 958.399 21.104 957.583 20.384C956.791 19.664 955.603 19.304 954.019 19.304C952.939 19.304 951.871 19.472 950.815 19.808C949.783 20.144 948.907 20.612 948.187 21.212L946.423 17.936C947.431 17.168 948.643 16.58 950.059 16.172C951.475 15.764 952.975 15.56 954.559 15.56ZM953.947 31.976C955.075 31.976 956.071 31.724 956.935 31.22C957.823 30.692 958.447 29.948 958.807 28.988V26.756H954.163C951.571 26.756 950.275 27.608 950.275 29.312C950.275 30.128 950.599 30.776 951.247 31.256C951.895 31.736 952.795 31.976 953.947 31.976ZM976.868 27.296H973.376V35H968.876V15.776H973.376V23.552H976.976L982.664 15.776H987.488L980.504 25.028L987.956 35H982.664L976.868 27.296ZM1006.11 19.592H999.379V35H994.879V19.592H988.111V15.776H1006.11V19.592ZM1018.74 22.112C1021.18 22.112 1023.06 22.664 1024.35 23.768C1025.65 24.872 1026.3 26.432 1026.3 28.448C1026.3 30.56 1025.58 32.192 1024.14 33.344C1022.72 34.496 1020.7 35.06 1018.09 35.036L1009.38 35V15.776H1013.88V22.076L1018.74 22.112ZM1028.78 15.776H1033.28V35H1028.78V15.776ZM1017.69 31.724C1019.01 31.748 1020.02 31.472 1020.72 30.896C1021.41 30.32 1021.76 29.48 1021.76 28.376C1021.76 27.296 1021.42 26.504 1020.75 26C1020.08 25.496 1019.06 25.232 1017.69 25.208L1013.88 25.172V31.688L1017.69 31.724Z" fill="black"/>
<rect x="1098" y="18" width="768" height="5" rx="2.5" fill="#8F837C"/>
<rect y="18" width="768" height="5" rx="2.5" fill="#8F837C"/>
</svg>
