<svg width="1866" height="44" viewBox="0 0 1866 44" fill="none" xmlns="http://www.w3.org/2000/svg">
<path d="M880.512 31.04V40.364H876.192V35H856.86V40.364H852.504L852.54 31.04H853.62C855.204 30.968 856.308 29.804 856.932 27.548C857.58 25.268 857.976 22.016 858.12 17.792L858.408 9.8H876.876V31.04H880.512ZM862.224 18.224C862.104 21.488 861.84 24.212 861.432 26.396C861.024 28.556 860.376 30.104 859.488 31.04H872.268V13.76H862.404L862.224 18.224ZM892.631 35.252C890.687 35.252 888.935 34.832 887.375 33.992C885.815 33.152 884.591 31.988 883.703 30.5C882.839 28.988 882.407 27.284 882.407 25.388C882.407 23.492 882.839 21.8 883.703 20.312C884.591 18.824 885.815 17.66 887.375 16.82C888.935 15.98 890.687 15.56 892.631 15.56C894.599 15.56 896.363 15.98 897.923 16.82C899.483 17.66 900.695 18.824 901.559 20.312C902.447 21.8 902.891 23.492 902.891 25.388C902.891 27.284 902.447 28.988 901.559 30.5C900.695 31.988 899.483 33.152 897.923 33.992C896.363 34.832 894.599 35.252 892.631 35.252ZM892.631 31.4C894.287 31.4 895.655 30.848 896.735 29.744C897.815 28.64 898.355 27.188 898.355 25.388C898.355 23.588 897.815 22.136 896.735 21.032C895.655 19.928 894.287 19.376 892.631 19.376C890.975 19.376 889.607 19.928 888.527 21.032C887.471 22.136 886.943 23.588 886.943 25.388C886.943 27.188 887.471 28.64 888.527 29.744C889.607 30.848 890.975 31.4 892.631 31.4ZM916.085 35.252C914.093 35.252 912.305 34.832 910.721 33.992C909.137 33.152 907.901 31.988 907.013 30.5C906.125 28.988 905.681 27.284 905.681 25.388C905.681 23.492 906.125 21.8 907.013 20.312C907.901 18.824 909.125 17.66 910.685 16.82C912.269 15.98 914.069 15.56 916.085 15.56C917.981 15.56 919.637 15.944 921.053 16.712C922.493 17.48 923.573 18.584 924.293 20.024L920.837 22.04C920.285 21.152 919.589 20.492 918.749 20.06C917.933 19.604 917.033 19.376 916.049 19.376C914.369 19.376 912.977 19.928 911.873 21.032C910.769 22.112 910.217 23.564 910.217 25.388C910.217 27.212 910.757 28.676 911.837 29.78C912.941 30.86 914.345 31.4 916.049 31.4C917.033 31.4 917.933 31.184 918.749 30.752C919.589 30.296 920.285 29.624 920.837 28.736L924.293 30.752C923.549 32.192 922.457 33.308 921.017 34.1C919.601 34.868 917.957 35.252 916.085 35.252ZM943.307 19.592H936.575V35H932.075V19.592H925.307V15.776H943.307V19.592ZM953.735 15.56C956.567 15.56 958.727 16.244 960.215 17.612C961.727 18.956 962.483 20.996 962.483 23.732V35H958.235V32.66C957.683 33.5 956.891 34.148 955.859 34.604C954.851 35.036 953.627 35.252 952.187 35.252C950.747 35.252 949.487 35.012 948.407 34.532C947.327 34.028 946.487 33.344 945.887 32.48C945.311 31.592 945.023 30.596 945.023 29.492C945.023 27.764 945.659 26.384 946.931 25.352C948.227 24.296 950.255 23.768 953.015 23.768H957.983V23.48C957.983 22.136 957.575 21.104 956.759 20.384C955.967 19.664 954.779 19.304 953.195 19.304C952.115 19.304 951.047 19.472 949.991 19.808C948.959 20.144 948.083 20.612 947.363 21.212L945.599 17.936C946.607 17.168 947.819 16.58 949.235 16.172C950.651 15.764 952.151 15.56 953.735 15.56ZM953.123 31.976C954.251 31.976 955.247 31.724 956.111 31.22C956.999 30.692 957.623 29.948 957.983 28.988V26.756H953.339C950.747 26.756 949.451 27.608 949.451 29.312C949.451 30.128 949.775 30.776 950.423 31.256C951.071 31.736 951.971 31.976 953.123 31.976ZM981.983 24.992C984.359 25.712 985.547 27.248 985.547 29.6C985.547 31.328 984.899 32.66 983.603 33.596C982.307 34.532 980.387 35 977.843 35H968.051V15.776H977.447C979.799 15.776 981.635 16.208 982.955 17.072C984.275 17.936 984.935 19.16 984.935 20.744C984.935 21.728 984.671 22.58 984.143 23.3C983.639 24.02 982.919 24.584 981.983 24.992ZM972.335 23.804H977.051C979.379 23.804 980.543 23 980.543 21.392C980.543 19.832 979.379 19.052 977.051 19.052H972.335V23.804ZM977.483 31.724C979.955 31.724 981.191 30.92 981.191 29.312C981.191 28.472 980.903 27.848 980.327 27.44C979.751 27.008 978.851 26.792 977.627 26.792H972.335V31.724H977.483ZM998.332 27.296H994.84V35H990.34V15.776H994.84V23.552H998.44L1004.13 15.776H1008.95L1001.97 25.028L1009.42 35H1004.13L998.332 27.296ZM1019.41 15.56C1022.24 15.56 1024.4 16.244 1025.89 17.612C1027.4 18.956 1028.15 20.996 1028.15 23.732V35H1023.91V32.66C1023.35 33.5 1022.56 34.148 1021.53 34.604C1020.52 35.036 1019.3 35.252 1017.86 35.252C1016.42 35.252 1015.16 35.012 1014.08 34.532C1013 34.028 1012.16 33.344 1011.56 32.48C1010.98 31.592 1010.69 30.596 1010.69 29.492C1010.69 27.764 1011.33 26.384 1012.6 25.352C1013.9 24.296 1015.93 23.768 1018.69 23.768H1023.65V23.48C1023.65 22.136 1023.25 21.104 1022.43 20.384C1021.64 19.664 1020.45 19.304 1018.87 19.304C1017.79 19.304 1016.72 19.472 1015.66 19.808C1014.63 20.144 1013.75 20.612 1013.03 21.212L1011.27 17.936C1012.28 17.168 1013.49 16.58 1014.91 16.172C1016.32 15.764 1017.82 15.56 1019.41 15.56ZM1018.79 31.976C1019.92 31.976 1020.92 31.724 1021.78 31.22C1022.67 30.692 1023.29 29.948 1023.65 28.988V26.756H1019.01C1016.42 26.756 1015.12 27.608 1015.12 29.312C1015.12 30.128 1015.45 30.776 1016.09 31.256C1016.74 31.736 1017.64 31.976 1018.79 31.976Z" fill="black"/>
<rect x="1098" y="19" width="768" height="5" rx="2.5" fill="#8F837C"/>
<rect y="19" width="768" height="5" rx="2.5" fill="#8F837C"/>
</svg>
