<svg width="1885" height="43" viewBox="0 0 1885 43" fill="none" xmlns="http://www.w3.org/2000/svg">
<rect x="1077" y="18" width="808" height="5" rx="2.5" fill="#8F837C"/>
<rect y="18" width="808" height="5" rx="2.5" fill="#8F837C"/>
<path d="M857.928 9.8V35H825.564V9.8H830.172V31.04H839.46V9.8H844.068V31.04H853.32V9.8H857.928ZM872.496 27.296H869.004V35H864.504V15.776H869.004V23.552H872.604L878.292 15.776H883.116L876.132 25.028L883.584 35H878.292L872.496 27.296ZM893.571 15.56C896.403 15.56 898.563 16.244 900.051 17.612C901.563 18.956 902.319 20.996 902.319 23.732V35H898.071V32.66C897.519 33.5 896.727 34.148 895.695 34.604C894.687 35.036 893.463 35.252 892.023 35.252C890.583 35.252 889.323 35.012 888.243 34.532C887.163 34.028 886.323 33.344 885.723 32.48C885.147 31.592 884.859 30.596 884.859 29.492C884.859 27.764 885.495 26.384 886.767 25.352C888.063 24.296 890.091 23.768 892.851 23.768H897.819V23.48C897.819 22.136 897.411 21.104 896.595 20.384C895.803 19.664 894.615 19.304 893.031 19.304C891.951 19.304 890.883 19.472 889.827 19.808C888.795 20.144 887.919 20.612 887.199 21.212L885.435 17.936C886.443 17.168 887.655 16.58 889.071 16.172C890.487 15.764 891.987 15.56 893.571 15.56ZM892.959 31.976C894.087 31.976 895.083 31.724 895.947 31.22C896.835 30.692 897.459 29.948 897.819 28.988V26.756H893.175C890.583 26.756 889.287 27.608 889.287 29.312C889.287 30.128 889.611 30.776 890.259 31.256C890.907 31.736 891.807 31.976 892.959 31.976ZM933.303 25.352C933.303 28.328 932.307 30.668 930.315 32.372C928.347 34.076 925.527 35.048 921.855 35.288V41.984H917.607V35.324C913.935 35.084 911.115 34.112 909.147 32.408C907.179 30.704 906.195 28.352 906.195 25.352C906.195 22.376 907.179 20.06 909.147 18.404C911.115 16.724 913.935 15.764 917.607 15.524V8.288H921.855V15.524C925.527 15.764 928.347 16.724 930.315 18.404C932.307 20.084 933.303 22.4 933.303 25.352ZM910.623 25.352C910.623 27.2 911.187 28.64 912.315 29.672C913.467 30.704 915.231 31.328 917.607 31.544V19.34C915.231 19.532 913.467 20.132 912.315 21.14C911.187 22.148 910.623 23.552 910.623 25.352ZM921.855 31.544C926.559 31.112 928.911 29.048 928.911 25.352C928.911 23.528 928.323 22.124 927.147 21.14C925.995 20.132 924.231 19.532 921.855 19.34V31.544ZM947.025 22.112C949.473 22.112 951.345 22.664 952.641 23.768C953.937 24.872 954.585 26.432 954.585 28.448C954.585 30.56 953.865 32.192 952.425 33.344C951.009 34.496 948.993 35.06 946.377 35.036L937.665 35V15.776H942.165V22.076L947.025 22.112ZM957.069 15.776H961.569V35H957.069V15.776ZM945.981 31.724C947.301 31.748 948.309 31.472 949.005 30.896C949.701 30.32 950.049 29.48 950.049 28.376C950.049 27.296 949.713 26.504 949.041 26C948.369 25.496 947.349 25.232 945.981 25.208L942.165 25.172V31.688L945.981 31.724ZM966.574 23.12H976.474V26.864H966.574V23.12ZM989.461 27.296H985.969V35H981.469V15.776H985.969V23.552H989.569L995.257 15.776H1000.08L993.097 25.028L1000.55 35H995.257L989.461 27.296ZM1020.78 15.776L1011.78 36.548C1010.94 38.636 1009.92 40.1 1008.72 40.94C1007.52 41.804 1006.07 42.236 1004.36 42.236C1003.4 42.236 1002.45 42.08 1001.52 41.768C1000.58 41.456 999.813 41.024 999.213 40.472L1001.01 37.16C1001.45 37.568 1001.95 37.892 1002.53 38.132C1003.13 38.372 1003.73 38.492 1004.33 38.492C1005.12 38.492 1005.77 38.288 1006.27 37.88C1006.8 37.472 1007.28 36.788 1007.71 35.828L1008.03 35.072L999.645 15.776H1004.33L1010.37 29.996L1016.46 15.776H1020.78ZM1042.33 15.776V35H1037.87V19.592H1028.4V35H1023.9V15.776H1042.33ZM1066.41 25.496C1066.41 25.808 1066.38 26.252 1066.33 26.828H1051.25C1051.51 28.244 1052.2 29.372 1053.3 30.212C1054.43 31.028 1055.82 31.436 1057.48 31.436C1059.59 31.436 1061.33 30.74 1062.7 29.348L1065.11 32.12C1064.25 33.152 1063.15 33.932 1061.83 34.46C1060.51 34.988 1059.03 35.252 1057.37 35.252C1055.26 35.252 1053.4 34.832 1051.79 33.992C1050.18 33.152 1048.93 31.988 1048.05 30.5C1047.18 28.988 1046.75 27.284 1046.75 25.388C1046.75 23.516 1047.17 21.836 1048.01 20.348C1048.87 18.836 1050.06 17.66 1051.57 16.82C1053.09 15.98 1054.79 15.56 1056.69 15.56C1058.56 15.56 1060.23 15.98 1061.69 16.82C1063.18 17.636 1064.33 18.8 1065.15 20.312C1065.99 21.8 1066.41 23.528 1066.41 25.496ZM1056.69 19.16C1055.25 19.16 1054.02 19.592 1053.01 20.456C1052.03 21.296 1051.43 22.424 1051.21 23.84H1062.12C1061.93 22.448 1061.34 21.32 1060.36 20.456C1059.37 19.592 1058.15 19.16 1056.69 19.16Z" fill="#2F2F2F"/>
</svg>
