<svg width="355" height="115" viewBox="0 0 355 115" fill="none" xmlns="http://www.w3.org/2000/svg">
<path d="M3.03 91.22H5.16V98.21H15.09V91.22H17.22V107H15.09V100.04H5.16V107H3.03V91.22ZM28.7041 91.1C30.7641 91.1 32.3441 91.62 33.4441 92.66C34.5441 93.68 35.0941 95.2 35.0941 97.22V107H33.0541V104.54C32.5741 105.36 31.8641 106 30.9241 106.46C30.0041 106.92 28.9041 107.15 27.6241 107.15C25.8641 107.15 24.4641 106.73 23.4241 105.89C22.3841 105.05 21.8641 103.94 21.8641 102.56C21.8641 101.22 22.3441 100.14 23.3041 99.32C24.2841 98.5 25.8341 98.09 27.9541 98.09H32.9641V97.13C32.9641 95.77 32.5841 94.74 31.8241 94.04C31.0641 93.32 29.9541 92.96 28.4941 92.96C27.4941 92.96 26.5341 93.13 25.6141 93.47C24.6941 93.79 23.9041 94.24 23.2441 94.82L22.2841 93.23C23.0841 92.55 24.0441 92.03 25.1641 91.67C26.2841 91.29 27.4641 91.1 28.7041 91.1ZM27.9541 105.47C29.1541 105.47 30.1841 105.2 31.0441 104.66C31.9041 104.1 32.5441 103.3 32.9641 102.26V99.68H28.0141C25.3141 99.68 23.9641 100.62 23.9641 102.5C23.9641 103.42 24.3141 104.15 25.0141 104.69C25.7141 105.21 26.6941 105.47 27.9541 105.47ZM56.1544 105.14V110.81H54.1444V107H40.0144V110.81H38.0044V105.14H38.9044C39.9644 105.08 40.6844 104.3 41.0644 102.8C41.4444 101.3 41.7044 99.2 41.8444 96.5L42.0544 91.22H53.6944V105.14H56.1544ZM43.7944 96.62C43.6944 98.86 43.5044 100.71 43.2244 102.17C42.9444 103.61 42.4444 104.6 41.7244 105.14H51.5644V93.11H43.9744L43.7944 96.62ZM74.1054 99.77H60.9054C61.0254 101.41 61.6554 102.74 62.7954 103.76C63.9354 104.76 65.3754 105.26 67.1154 105.26C68.0954 105.26 68.9954 105.09 69.8154 104.75C70.6354 104.39 71.3454 103.87 71.9454 103.19L73.1454 104.57C72.4454 105.41 71.5654 106.05 70.5054 106.49C69.4654 106.93 68.3154 107.15 67.0554 107.15C65.4354 107.15 63.9954 106.81 62.7354 106.13C61.4954 105.43 60.5254 104.47 59.8254 103.25C59.1254 102.03 58.7754 100.65 58.7754 99.11C58.7754 97.57 59.1054 96.19 59.7654 94.97C60.4454 93.75 61.3654 92.8 62.5254 92.12C63.7054 91.44 65.0254 91.1 66.4854 91.1C67.9454 91.1 69.2554 91.44 70.4154 92.12C71.5754 92.8 72.4854 93.75 73.1454 94.97C73.8054 96.17 74.1354 97.55 74.1354 99.11L74.1054 99.77ZM66.4854 92.93C64.9654 92.93 63.6854 93.42 62.6454 94.4C61.6254 95.36 61.0454 96.62 60.9054 98.18H72.0954C71.9554 96.62 71.3654 95.36 70.3254 94.4C69.3054 93.42 68.0254 92.93 66.4854 92.93ZM92.2409 99.98H88.8209V107H86.6909V99.98H83.2709L78.4409 107H75.8909L81.5609 98.87L76.3409 91.22H78.6509L83.2709 98.15H86.6909V91.22H88.8209V98.15H92.2409L96.8909 91.22H99.2009L93.9809 98.9L99.6509 107H97.1009L92.2409 99.98ZM103.196 91.22H105.326V98.21H115.256V91.22H117.386V107H115.256V100.04H105.326V107H103.196V91.22ZM137.24 99.77H124.04C124.16 101.41 124.79 102.74 125.93 103.76C127.07 104.76 128.51 105.26 130.25 105.26C131.23 105.26 132.13 105.09 132.95 104.75C133.77 104.39 134.48 103.87 135.08 103.19L136.28 104.57C135.58 105.41 134.7 106.05 133.64 106.49C132.6 106.93 131.45 107.15 130.19 107.15C128.57 107.15 127.13 106.81 125.87 106.13C124.63 105.43 123.66 104.47 122.96 103.25C122.26 102.03 121.91 100.65 121.91 99.11C121.91 97.57 122.24 96.19 122.9 94.97C123.58 93.75 124.5 92.8 125.66 92.12C126.84 91.44 128.16 91.1 129.62 91.1C131.08 91.1 132.39 91.44 133.55 92.12C134.71 92.8 135.62 93.75 136.28 94.97C136.94 96.17 137.27 97.55 137.27 99.11L137.24 99.77ZM129.62 92.93C128.1 92.93 126.82 93.42 125.78 94.4C124.76 95.36 124.18 96.62 124.04 98.18H135.23C135.09 96.62 134.5 95.36 133.46 94.4C132.44 93.42 131.16 92.93 129.62 92.93ZM155.785 99.77H142.585C142.705 101.41 143.335 102.74 144.475 103.76C145.615 104.76 147.055 105.26 148.795 105.26C149.775 105.26 150.675 105.09 151.495 104.75C152.315 104.39 153.025 103.87 153.625 103.19L154.825 104.57C154.125 105.41 153.245 106.05 152.185 106.49C151.145 106.93 149.995 107.15 148.735 107.15C147.115 107.15 145.675 106.81 144.415 106.13C143.175 105.43 142.205 104.47 141.505 103.25C140.805 102.03 140.455 100.65 140.455 99.11C140.455 97.57 140.785 96.19 141.445 94.97C142.125 93.75 143.045 92.8 144.205 92.12C145.385 91.44 146.705 91.1 148.165 91.1C149.625 91.1 150.935 91.44 152.095 92.12C153.255 92.8 154.165 93.75 154.825 94.97C155.485 96.17 155.815 97.55 155.815 99.11L155.785 99.77ZM148.165 92.93C146.645 92.93 145.365 93.42 144.325 94.4C143.305 95.36 142.725 96.62 142.585 98.18H153.775C153.635 96.62 153.045 95.36 152.005 94.4C150.985 93.42 149.705 92.93 148.165 92.93ZM160.71 103.88C161.17 103.88 161.55 104.04 161.85 104.36C162.15 104.66 162.3 105.04 162.3 105.5C162.3 105.74 162.26 106 162.18 106.28C162.12 106.56 162.02 106.88 161.88 107.24L160.62 111.38H159.18L160.2 107.03C159.88 106.93 159.62 106.75 159.42 106.49C159.22 106.21 159.12 105.88 159.12 105.5C159.12 105.04 159.27 104.66 159.57 104.36C159.87 104.04 160.25 103.88 160.71 103.88ZM186.649 91.22V107H184.519V100.43C182.699 101.23 180.909 101.63 179.149 101.63C177.249 101.63 175.769 101.2 174.709 100.34C173.649 99.46 173.119 98.15 173.119 96.41V91.22H175.249V96.29C175.249 97.47 175.629 98.37 176.389 98.99C177.149 99.59 178.199 99.89 179.539 99.89C181.019 99.89 182.679 99.5 184.519 98.72V91.22H186.649ZM206.498 99.77H193.298C193.418 101.41 194.048 102.74 195.188 103.76C196.328 104.76 197.768 105.26 199.508 105.26C200.488 105.26 201.388 105.09 202.208 104.75C203.028 104.39 203.738 103.87 204.338 103.19L205.538 104.57C204.838 105.41 203.958 106.05 202.898 106.49C201.858 106.93 200.708 107.15 199.448 107.15C197.828 107.15 196.388 106.81 195.128 106.13C193.888 105.43 192.918 104.47 192.218 103.25C191.518 102.03 191.168 100.65 191.168 99.11C191.168 97.57 191.498 96.19 192.158 94.97C192.838 93.75 193.758 92.8 194.918 92.12C196.098 91.44 197.418 91.1 198.878 91.1C200.338 91.1 201.648 91.44 202.808 92.12C203.968 92.8 204.878 93.75 205.538 94.97C206.198 96.17 206.528 97.55 206.528 99.11L206.498 99.77ZM198.878 92.93C197.358 92.93 196.078 93.42 195.038 94.4C194.018 95.36 193.438 96.62 193.298 98.18H204.488C204.348 96.62 203.758 95.36 202.718 94.4C201.698 93.42 200.418 92.93 198.878 92.93ZM228.883 91.22V107H226.933V94.52L220.543 105.08H219.583L213.193 94.49V107H211.243V91.22H213.403L220.093 102.59L226.903 91.22H228.883ZM258.186 105.14V110.81H256.176V107H242.046V110.81H240.036V105.14H240.936C241.996 105.08 242.716 104.3 243.096 102.8C243.476 101.3 243.736 99.2 243.876 96.5L244.086 91.22H255.726V105.14H258.186ZM245.826 96.62C245.726 98.86 245.536 100.71 245.256 102.17C244.976 103.61 244.476 104.6 243.756 105.14H253.596V93.11H246.006L245.826 96.62ZM268.847 107.15C267.327 107.15 265.957 106.81 264.737 106.13C263.517 105.43 262.557 104.47 261.857 103.25C261.157 102.03 260.807 100.65 260.807 99.11C260.807 97.57 261.157 96.19 261.857 94.97C262.557 93.75 263.517 92.8 264.737 92.12C265.957 91.44 267.327 91.1 268.847 91.1C270.367 91.1 271.737 91.44 272.957 92.12C274.177 92.8 275.127 93.75 275.807 94.97C276.507 96.19 276.857 97.57 276.857 99.11C276.857 100.65 276.507 102.03 275.807 103.25C275.127 104.47 274.177 105.43 272.957 106.13C271.737 106.81 270.367 107.15 268.847 107.15ZM268.847 105.26C269.967 105.26 270.967 105.01 271.847 104.51C272.747 103.99 273.447 103.26 273.947 102.32C274.447 101.38 274.697 100.31 274.697 99.11C274.697 97.91 274.447 96.84 273.947 95.9C273.447 94.96 272.747 94.24 271.847 93.74C270.967 93.22 269.967 92.96 268.847 92.96C267.727 92.96 266.717 93.22 265.817 93.74C264.937 94.24 264.237 94.96 263.717 95.9C263.217 96.84 262.967 97.91 262.967 99.11C262.967 100.31 263.217 101.38 263.717 102.32C264.237 103.26 264.937 103.99 265.817 104.51C266.717 105.01 267.727 105.26 268.847 105.26ZM294.221 91.22V107H292.091V93.11H284.531L284.321 97.01C284.161 100.29 283.781 102.81 283.181 104.57C282.581 106.33 281.511 107.21 279.971 107.21C279.551 107.21 279.041 107.13 278.441 106.97L278.591 105.14C278.951 105.22 279.201 105.26 279.341 105.26C280.161 105.26 280.781 104.88 281.201 104.12C281.621 103.36 281.901 102.42 282.041 101.3C282.181 100.18 282.301 98.7 282.401 96.86L282.671 91.22H294.221ZM313.176 91.22V107H311.046V93.11H303.486L303.276 97.01C303.116 100.29 302.736 102.81 302.136 104.57C301.536 106.33 300.466 107.21 298.926 107.21C298.506 107.21 297.996 107.13 297.396 106.97L297.546 105.14C297.906 105.22 298.156 105.26 298.296 105.26C299.116 105.26 299.736 104.88 300.156 104.12C300.576 103.36 300.856 102.42 300.996 101.3C301.136 100.18 301.256 98.7 301.356 96.86L301.626 91.22H313.176ZM324.661 91.1C326.721 91.1 328.301 91.62 329.401 92.66C330.501 93.68 331.051 95.2 331.051 97.22V107H329.011V104.54C328.531 105.36 327.821 106 326.881 106.46C325.961 106.92 324.861 107.15 323.581 107.15C321.821 107.15 320.421 106.73 319.381 105.89C318.341 105.05 317.821 103.94 317.821 102.56C317.821 101.22 318.301 100.14 319.261 99.32C320.241 98.5 321.791 98.09 323.911 98.09H328.921V97.13C328.921 95.77 328.541 94.74 327.781 94.04C327.021 93.32 325.911 92.96 324.451 92.96C323.451 92.96 322.491 93.13 321.571 93.47C320.651 93.79 319.861 94.24 319.201 94.82L318.241 93.23C319.041 92.55 320.001 92.03 321.121 91.67C322.241 91.29 323.421 91.1 324.661 91.1ZM323.911 105.47C325.111 105.47 326.141 105.2 327.001 104.66C327.861 104.1 328.501 103.3 328.921 102.26V99.68H323.971C321.271 99.68 319.921 100.62 319.921 102.5C319.921 103.42 320.271 104.15 320.971 104.69C321.671 105.21 322.651 105.47 323.911 105.47ZM344.851 91.1C346.331 91.1 347.671 91.44 348.871 92.12C350.071 92.78 351.011 93.72 351.691 94.94C352.371 96.16 352.711 97.55 352.711 99.11C352.711 100.69 352.371 102.09 351.691 103.31C351.011 104.53 350.071 105.48 348.871 106.16C347.691 106.82 346.351 107.15 344.851 107.15C343.571 107.15 342.411 106.89 341.371 106.37C340.351 105.83 339.511 105.05 338.851 104.03V112.82H336.721V91.22H338.761V94.34C339.401 93.3 340.241 92.5 341.281 91.94C342.341 91.38 343.531 91.1 344.851 91.1ZM344.701 105.26C345.801 105.26 346.801 105.01 347.701 104.51C348.601 103.99 349.301 103.26 349.801 102.32C350.321 101.38 350.581 100.31 350.581 99.11C350.581 97.91 350.321 96.85 349.801 95.93C349.301 94.99 348.601 94.26 347.701 93.74C346.801 93.22 345.801 92.96 344.701 92.96C343.581 92.96 342.571 93.22 341.671 93.74C340.791 94.26 340.091 94.99 339.571 95.93C339.071 96.85 338.821 97.91 338.821 99.11C338.821 100.31 339.071 101.38 339.571 102.32C340.091 103.26 340.791 103.99 341.671 104.51C342.571 105.01 343.581 105.26 344.701 105.26Z" fill="white"/>
<path d="M73.368 13.4V47H69.96V20.12L56.76 42.728H55.08L41.88 20.264V47H38.472V13.4H41.4L55.992 38.312L70.44 13.4H73.368ZM108.076 43.928V47H84.3158V13.4H107.356V16.472H87.8678V28.424H105.244V31.448H87.8678V43.928H108.076ZM137.593 29.672C139.801 30.152 141.497 31.112 142.681 32.552C143.897 33.96 144.505 35.784 144.505 38.024C144.505 40.904 143.433 43.128 141.289 44.696C139.177 46.232 136.041 47 131.881 47H116.425V13.4H130.921C134.665 13.4 137.561 14.152 139.609 15.656C141.689 17.16 142.729 19.288 142.729 22.04C142.729 23.896 142.265 25.48 141.337 26.792C140.441 28.072 139.193 29.032 137.593 29.672ZM119.977 16.328V28.52H130.681C133.401 28.52 135.497 28.008 136.969 26.984C138.441 25.928 139.177 24.408 139.177 22.424C139.177 20.44 138.441 18.936 136.969 17.912C135.497 16.856 133.401 16.328 130.681 16.328H119.977ZM131.833 44.072C134.841 44.072 137.113 43.56 138.649 42.536C140.185 41.512 140.953 39.912 140.953 37.736C140.953 33.544 137.913 31.448 131.833 31.448H119.977V44.072H131.833ZM176.373 43.928V47H152.613V13.4H175.653V16.472H156.165V28.424H173.541V31.448H156.165V43.928H176.373ZM184.722 13.4H188.274V43.928H207.09V47H184.722V13.4ZM234.153 38.024H215.433L211.401 47H207.705L223.065 13.4H226.569L241.929 47H238.185L234.153 38.024ZM232.857 35.144L224.793 17.096L216.729 35.144H232.857ZM275.568 13.4V47H272.64L251.04 19.736V47H247.488V13.4H250.416L272.064 40.664V13.4H275.568ZM286.535 13.4H300.215C303.767 13.4 306.903 14.12 309.623 15.56C312.343 16.968 314.455 18.952 315.959 21.512C317.463 24.04 318.215 26.936 318.215 30.2C318.215 33.464 317.463 36.376 315.959 38.936C314.455 41.464 312.343 43.448 309.623 44.888C306.903 46.296 303.767 47 300.215 47H286.535V13.4ZM300.023 43.928C302.967 43.928 305.543 43.352 307.751 42.2C309.959 41.016 311.671 39.4 312.887 37.352C314.103 35.272 314.711 32.888 314.711 30.2C314.711 27.512 314.103 25.144 312.887 23.096C311.671 21.016 309.959 19.4 307.751 18.248C305.543 17.064 302.967 16.472 300.023 16.472H290.087V43.928H300.023Z" fill="white"/>
<circle cx="177.5" cy="69.5" r="6.5" fill="#2F2F2F" fill-opacity="0.75"/>
<rect y="66" width="124" height="8" rx="4" fill="#2F2F2F" fill-opacity="0.75"/>
<rect x="231" y="66" width="124" height="8" rx="4" fill="#2F2F2F" fill-opacity="0.75"/>
</svg>
