<svg width="1818" height="42" viewBox="0 0 1818 42" fill="none" xmlns="http://www.w3.org/2000/svg">
<rect x="994" y="20" width="824" height="5" rx="2.5" fill="#8F837C"/>
<rect y="20" width="824" height="5" rx="2.5" fill="#8F837C"/>
<path d="M851.12 35.36C848.576 35.36 846.272 34.808 844.208 33.704C842.168 32.576 840.56 31.028 839.384 29.06C838.232 27.092 837.656 24.872 837.656 22.4C837.656 19.928 838.244 17.708 839.42 15.74C840.596 13.772 842.204 12.236 844.244 11.132C846.308 10.004 848.612 9.44 851.156 9.44C853.22 9.44 855.104 9.8 856.808 10.52C858.512 11.24 859.952 12.284 861.128 13.652L858.104 16.496C856.28 14.528 854.036 13.544 851.372 13.544C849.644 13.544 848.096 13.928 846.728 14.696C845.36 15.44 844.292 16.484 843.524 17.828C842.756 19.172 842.372 20.696 842.372 22.4C842.372 24.104 842.756 25.628 843.524 26.972C844.292 28.316 845.36 29.372 846.728 30.14C848.096 30.884 849.644 31.256 851.372 31.256C854.036 31.256 856.28 30.26 858.104 28.268L861.128 31.148C859.952 32.516 858.5 33.56 856.772 34.28C855.068 35 853.184 35.36 851.12 35.36ZM872.961 27.296H869.469V35H864.969V15.776H869.469V23.552H873.069L878.757 15.776H883.581L876.597 25.028L884.049 35H878.757L872.961 27.296ZM887.223 15.776H891.723V28.448L902.343 15.776H906.447V35H901.947V22.328L891.363 35H887.223V15.776ZM933.021 31.184V39.284H928.809V35H913.977V39.284H909.801V31.184H910.701C911.925 31.136 912.753 30.356 913.185 28.844C913.641 27.308 913.941 25.148 914.085 22.364L914.337 15.776H930.177V31.184H933.021ZM918.189 22.688C918.093 24.896 917.913 26.696 917.649 28.088C917.385 29.48 916.905 30.512 916.209 31.184H925.677V19.592H918.297L918.189 22.688ZM945.032 27.296H941.54V35H937.04V15.776H941.54V23.552H945.14L950.828 15.776H955.652L948.668 25.028L956.12 35H950.828L945.032 27.296ZM959.294 15.776H963.794V28.448L974.414 15.776H978.518V35H974.018V22.328L963.434 35H959.294V15.776Z" fill="#2F2F2F"/>
</svg>
