<svg width="1827" height="43" viewBox="0 0 1827 43" fill="none" xmlns="http://www.w3.org/2000/svg">
<rect x="1146" y="25" width="681" height="5" rx="2.5" fill="#8F837C"/>
<rect y="20" width="681" height="5" rx="2.5" fill="#8F837C"/>
<path d="M706.12 35.36C703.576 35.36 701.272 34.808 699.208 33.704C697.168 32.576 695.56 31.028 694.384 29.06C693.232 27.092 692.656 24.872 692.656 22.4C692.656 19.928 693.244 17.708 694.42 15.74C695.596 13.772 697.204 12.236 699.244 11.132C701.308 10.004 703.612 9.44 706.156 9.44C708.22 9.44 710.104 9.8 711.808 10.52C713.512 11.24 714.952 12.284 716.128 13.652L713.104 16.496C711.28 14.528 709.036 13.544 706.372 13.544C704.644 13.544 703.096 13.928 701.728 14.696C700.36 15.44 699.292 16.484 698.524 17.828C697.756 19.172 697.372 20.696 697.372 22.4C697.372 24.104 697.756 25.628 698.524 26.972C699.292 28.316 700.36 29.372 701.728 30.14C703.096 30.884 704.644 31.256 706.372 31.256C709.036 31.256 711.28 30.26 713.104 28.268L716.128 31.148C714.952 32.516 713.5 33.56 711.772 34.28C710.068 35 708.184 35.36 706.12 35.36ZM731.466 35L726.534 28.34L721.566 35H716.598L724.086 25.244L716.922 15.776H721.926L726.642 22.076L731.358 15.776H736.218L729.018 25.172L736.542 35H731.466ZM757.129 25.496C757.129 25.808 757.105 26.252 757.057 26.828H741.973C742.237 28.244 742.921 29.372 744.025 30.212C745.153 31.028 746.545 31.436 748.201 31.436C750.313 31.436 752.053 30.74 753.421 29.348L755.833 32.12C754.969 33.152 753.877 33.932 752.557 34.46C751.237 34.988 749.749 35.252 748.093 35.252C745.981 35.252 744.121 34.832 742.513 33.992C740.905 33.152 739.657 31.988 738.769 30.5C737.905 28.988 737.473 27.284 737.473 25.388C737.473 23.516 737.893 21.836 738.733 20.348C739.597 18.836 740.785 17.66 742.297 16.82C743.809 15.98 745.513 15.56 747.409 15.56C749.281 15.56 750.949 15.98 752.413 16.82C753.901 17.636 755.053 18.8 755.869 20.312C756.709 21.8 757.129 23.528 757.129 25.496ZM747.409 19.16C745.969 19.16 744.745 19.592 743.737 20.456C742.753 21.296 742.153 22.424 741.937 23.84H752.845C752.653 22.448 752.065 21.32 751.081 20.456C750.097 19.592 748.873 19.16 747.409 19.16ZM780.951 35V22.256L774.471 32.984H772.527L766.155 22.22V35H762.051V15.776H766.767L773.607 27.8L780.771 15.776H784.983L785.019 35H780.951ZM798.219 15.56C801.051 15.56 803.211 16.244 804.699 17.612C806.211 18.956 806.967 20.996 806.967 23.732V35H802.719V32.66C802.167 33.5 801.375 34.148 800.343 34.604C799.335 35.036 798.111 35.252 796.671 35.252C795.231 35.252 793.971 35.012 792.891 34.532C791.811 34.028 790.971 33.344 790.371 32.48C789.795 31.592 789.507 30.596 789.507 29.492C789.507 27.764 790.143 26.384 791.415 25.352C792.711 24.296 794.739 23.768 797.499 23.768H802.467V23.48C802.467 22.136 802.059 21.104 801.243 20.384C800.451 19.664 799.263 19.304 797.679 19.304C796.599 19.304 795.531 19.472 794.475 19.808C793.443 20.144 792.567 20.612 791.847 21.212L790.083 17.936C791.091 17.168 792.303 16.58 793.719 16.172C795.135 15.764 796.635 15.56 798.219 15.56ZM797.607 31.976C798.735 31.976 799.731 31.724 800.595 31.22C801.483 30.692 802.107 29.948 802.467 28.988V26.756H797.823C795.231 26.756 793.935 27.608 793.935 29.312C793.935 30.128 794.259 30.776 794.907 31.256C795.555 31.736 796.455 31.976 797.607 31.976ZM831.233 35.252C829.241 35.252 827.453 34.832 825.869 33.992C824.285 33.152 823.049 31.988 822.161 30.5C821.273 28.988 820.829 27.284 820.829 25.388C820.829 23.492 821.273 21.8 822.161 20.312C823.049 18.824 824.273 17.66 825.833 16.82C827.417 15.98 829.217 15.56 831.233 15.56C833.129 15.56 834.785 15.944 836.201 16.712C837.641 17.48 838.721 18.584 839.441 20.024L835.985 22.04C835.433 21.152 834.737 20.492 833.897 20.06C833.081 19.604 832.181 19.376 831.197 19.376C829.517 19.376 828.125 19.928 827.021 21.032C825.917 22.112 825.365 23.564 825.365 25.388C825.365 27.212 825.905 28.676 826.985 29.78C828.089 30.86 829.493 31.4 831.197 31.4C832.181 31.4 833.081 31.184 833.897 30.752C834.737 30.296 835.433 29.624 835.985 28.736L839.441 30.752C838.697 32.192 837.605 33.308 836.165 34.1C834.749 34.868 833.105 35.252 831.233 35.252ZM851.69 35.252C849.746 35.252 847.994 34.832 846.434 33.992C844.874 33.152 843.65 31.988 842.762 30.5C841.898 28.988 841.466 27.284 841.466 25.388C841.466 23.492 841.898 21.8 842.762 20.312C843.65 18.824 844.874 17.66 846.434 16.82C847.994 15.98 849.746 15.56 851.69 15.56C853.658 15.56 855.422 15.98 856.982 16.82C858.542 17.66 859.754 18.824 860.618 20.312C861.506 21.8 861.95 23.492 861.95 25.388C861.95 27.284 861.506 28.988 860.618 30.5C859.754 31.988 858.542 33.152 856.982 33.992C855.422 34.832 853.658 35.252 851.69 35.252ZM851.69 31.4C853.346 31.4 854.714 30.848 855.794 29.744C856.874 28.64 857.414 27.188 857.414 25.388C857.414 23.588 856.874 22.136 855.794 21.032C854.714 19.928 853.346 19.376 851.69 19.376C850.034 19.376 848.666 19.928 847.586 21.032C846.53 22.136 846.002 23.588 846.002 25.388C846.002 27.188 846.53 28.64 847.586 29.744C848.666 30.848 850.034 31.4 851.69 31.4ZM880.92 19.592H874.188V35H869.688V19.592H862.92V15.776H880.92V19.592ZM894.84 15.56C896.712 15.56 898.38 15.968 899.844 16.784C901.332 17.6 902.496 18.752 903.336 20.24C904.176 21.728 904.596 23.444 904.596 25.388C904.596 27.332 904.176 29.06 903.336 30.572C902.496 32.06 901.332 33.212 899.844 34.028C898.38 34.844 896.712 35.252 894.84 35.252C892.248 35.252 890.196 34.388 888.684 32.66V41.984H884.184V15.776H888.468V18.296C889.212 17.384 890.124 16.7 891.204 16.244C892.308 15.788 893.52 15.56 894.84 15.56ZM894.336 31.4C895.992 31.4 897.348 30.848 898.404 29.744C899.484 28.64 900.024 27.188 900.024 25.388C900.024 23.588 899.484 22.136 898.404 21.032C897.348 19.928 895.992 19.376 894.336 19.376C893.256 19.376 892.284 19.628 891.42 20.132C890.556 20.612 889.872 21.308 889.368 22.22C888.864 23.132 888.612 24.188 888.612 25.388C888.612 26.588 888.864 27.644 889.368 28.556C889.872 29.468 890.556 30.176 891.42 30.68C892.284 31.16 893.256 31.4 894.336 31.4ZM926.691 15.776L917.691 36.548C916.851 38.636 915.831 40.1 914.631 40.94C913.431 41.804 911.979 42.236 910.275 42.236C909.315 42.236 908.367 42.08 907.431 41.768C906.495 41.456 905.727 41.024 905.127 40.472L906.927 37.16C907.359 37.568 907.863 37.892 908.439 38.132C909.039 38.372 909.639 38.492 910.239 38.492C911.031 38.492 911.679 38.288 912.183 37.88C912.711 37.472 913.191 36.788 913.623 35.828L913.947 35.072L905.559 15.776H910.239L916.287 29.996L922.371 15.776H926.691ZM949.142 31.184V39.284H944.93V35H930.098V39.284H925.922V31.184H926.822C928.046 31.136 928.874 30.356 929.306 28.844C929.762 27.308 930.062 25.148 930.206 22.364L930.458 15.776H946.298V31.184H949.142ZM934.31 22.688C934.214 24.896 934.034 26.696 933.77 28.088C933.506 29.48 933.026 30.512 932.33 31.184H941.798V19.592H934.418L934.31 22.688ZM953.161 15.776H957.661V23.588H967.345V15.776H971.845V35H967.345V27.404H957.661V35H953.161V15.776ZM977.876 15.776H982.376V28.448L992.996 15.776H997.1V35H992.6V22.328L982.016 35H977.876V15.776ZM1019.46 15.776V35H1014.96V27.548C1013.11 28.436 1011.18 28.88 1009.16 28.88C1006.69 28.88 1004.8 28.316 1003.48 27.188C1002.16 26.036 1001.5 24.284 1001.5 21.932V15.776H1006V21.644C1006 22.868 1006.36 23.78 1007.08 24.38C1007.8 24.98 1008.82 25.28 1010.14 25.28C1011.82 25.28 1013.42 24.92 1014.96 24.2V15.776H1019.46ZM1043.51 25.496C1043.51 25.808 1043.49 26.252 1043.44 26.828H1028.36C1028.62 28.244 1029.3 29.372 1030.41 30.212C1031.54 31.028 1032.93 31.436 1034.58 31.436C1036.7 31.436 1038.44 30.74 1039.8 29.348L1042.22 32.12C1041.35 33.152 1040.26 33.932 1038.94 34.46C1037.62 34.988 1036.13 35.252 1034.48 35.252C1032.36 35.252 1030.5 34.832 1028.9 33.992C1027.29 33.152 1026.04 31.988 1025.15 30.5C1024.29 28.988 1023.86 27.284 1023.86 25.388C1023.86 23.516 1024.28 21.836 1025.12 20.348C1025.98 18.836 1027.17 17.66 1028.68 16.82C1030.19 15.98 1031.9 15.56 1033.79 15.56C1035.66 15.56 1037.33 15.98 1038.8 16.82C1040.28 17.636 1041.44 18.8 1042.25 20.312C1043.09 21.8 1043.51 23.528 1043.51 25.496ZM1033.79 19.16C1032.35 19.16 1031.13 19.592 1030.12 20.456C1029.14 21.296 1028.54 22.424 1028.32 23.84H1039.23C1039.04 22.448 1038.45 21.32 1037.46 20.456C1036.48 19.592 1035.26 19.16 1033.79 19.16ZM1057.18 35.252C1055.19 35.252 1053.4 34.832 1051.82 33.992C1050.23 33.152 1049 31.988 1048.11 30.5C1047.22 28.988 1046.78 27.284 1046.78 25.388C1046.78 23.492 1047.22 21.8 1048.11 20.312C1049 18.824 1050.22 17.66 1051.78 16.82C1053.37 15.98 1055.17 15.56 1057.18 15.56C1059.08 15.56 1060.73 15.944 1062.15 16.712C1063.59 17.48 1064.67 18.584 1065.39 20.024L1061.93 22.04C1061.38 21.152 1060.69 20.492 1059.85 20.06C1059.03 19.604 1058.13 19.376 1057.15 19.376C1055.47 19.376 1054.07 19.928 1052.97 21.032C1051.87 22.112 1051.31 23.564 1051.31 25.388C1051.31 27.212 1051.85 28.676 1052.93 29.78C1054.04 30.86 1055.44 31.4 1057.15 31.4C1058.13 31.4 1059.03 31.184 1059.85 30.752C1060.69 30.296 1061.38 29.624 1061.93 28.736L1065.39 30.752C1064.65 32.192 1063.55 33.308 1062.11 34.1C1060.7 34.868 1059.05 35.252 1057.18 35.252ZM1084.4 19.592H1077.67V35H1073.17V19.592H1066.4V15.776H1084.4V19.592ZM1101.6 24.992C1103.98 25.712 1105.16 27.248 1105.16 29.6C1105.16 31.328 1104.52 32.66 1103.22 33.596C1101.92 34.532 1100 35 1097.46 35H1087.67V15.776H1097.06C1099.42 15.776 1101.25 16.208 1102.57 17.072C1103.89 17.936 1104.55 19.16 1104.55 20.744C1104.55 21.728 1104.29 22.58 1103.76 23.3C1103.26 24.02 1102.54 24.584 1101.6 24.992ZM1091.95 23.804H1096.67C1099 23.804 1100.16 23 1100.16 21.392C1100.16 19.832 1099 19.052 1096.67 19.052H1091.95V23.804ZM1097.1 31.724C1099.57 31.724 1100.81 30.92 1100.81 29.312C1100.81 28.472 1100.52 27.848 1099.94 27.44C1099.37 27.008 1098.47 26.792 1097.24 26.792H1091.95V31.724H1097.1ZM1117.12 15.56C1119.95 15.56 1122.11 16.244 1123.6 17.612C1125.11 18.956 1125.87 20.996 1125.87 23.732V35H1121.62V32.66C1121.07 33.5 1120.28 34.148 1119.25 34.604C1118.24 35.036 1117.01 35.252 1115.57 35.252C1114.13 35.252 1112.87 35.012 1111.79 34.532C1110.71 34.028 1109.87 33.344 1109.27 32.48C1108.7 31.592 1108.41 30.596 1108.41 29.492C1108.41 27.764 1109.05 26.384 1110.32 25.352C1111.61 24.296 1113.64 23.768 1116.4 23.768H1121.37V23.48C1121.37 22.136 1120.96 21.104 1120.15 20.384C1119.35 19.664 1118.17 19.304 1116.58 19.304C1115.5 19.304 1114.43 19.472 1113.38 19.808C1112.35 20.144 1111.47 20.612 1110.75 21.212L1108.99 17.936C1109.99 17.168 1111.21 16.58 1112.62 16.172C1114.04 15.764 1115.54 15.56 1117.12 15.56ZM1116.51 31.976C1117.64 31.976 1118.63 31.724 1119.5 31.22C1120.39 30.692 1121.01 29.948 1121.37 28.988V26.756H1116.73C1114.13 26.756 1112.84 27.608 1112.84 29.312C1112.84 30.128 1113.16 30.776 1113.81 31.256C1114.46 31.736 1115.36 31.976 1116.51 31.976Z" fill="#2F2F2F"/>
</svg>
