<svg width="1833" height="43" viewBox="0 0 1833 43" fill="none" xmlns="http://www.w3.org/2000/svg">
<path d="M571.848 9.8V35H567.24V13.76H554.172V35H549.564V9.8H571.848ZM587.018 35.252C585.074 35.252 583.322 34.832 581.762 33.992C580.202 33.152 578.978 31.988 578.09 30.5C577.226 28.988 576.794 27.284 576.794 25.388C576.794 23.492 577.226 21.8 578.09 20.312C578.978 18.824 580.202 17.66 581.762 16.82C583.322 15.98 585.074 15.56 587.018 15.56C588.986 15.56 590.75 15.98 592.31 16.82C593.87 17.66 595.082 18.824 595.946 20.312C596.834 21.8 597.278 23.492 597.278 25.388C597.278 27.284 596.834 28.988 595.946 30.5C595.082 31.988 593.87 33.152 592.31 33.992C590.75 34.832 588.986 35.252 587.018 35.252ZM587.018 31.4C588.674 31.4 590.042 30.848 591.122 29.744C592.202 28.64 592.742 27.188 592.742 25.388C592.742 23.588 592.202 22.136 591.122 21.032C590.042 19.928 588.674 19.376 587.018 19.376C585.362 19.376 583.994 19.928 582.914 21.032C581.858 22.136 581.33 23.588 581.33 25.388C581.33 27.188 581.858 28.64 582.914 29.744C583.994 30.848 585.362 31.4 587.018 31.4ZM618.031 15.776V35H613.531V27.548C611.683 28.436 609.751 28.88 607.735 28.88C605.263 28.88 603.367 28.316 602.047 27.188C600.727 26.036 600.067 24.284 600.067 21.932V15.776H604.567V21.644C604.567 22.868 604.927 23.78 605.647 24.38C606.367 24.98 607.387 25.28 608.707 25.28C610.387 25.28 611.995 24.92 613.531 24.2V15.776H618.031ZM642.083 25.496C642.083 25.808 642.059 26.252 642.011 26.828H626.927C627.191 28.244 627.875 29.372 628.979 30.212C630.107 31.028 631.499 31.436 633.155 31.436C635.267 31.436 637.007 30.74 638.375 29.348L640.787 32.12C639.923 33.152 638.831 33.932 637.511 34.46C636.191 34.988 634.703 35.252 633.047 35.252C630.935 35.252 629.075 34.832 627.467 33.992C625.859 33.152 624.611 31.988 623.723 30.5C622.859 28.988 622.427 27.284 622.427 25.388C622.427 23.516 622.847 21.836 623.687 20.348C624.551 18.836 625.739 17.66 627.251 16.82C628.763 15.98 630.467 15.56 632.363 15.56C634.235 15.56 635.903 15.98 637.367 16.82C638.855 17.636 640.007 18.8 640.823 20.312C641.663 21.8 642.083 23.528 642.083 25.496ZM632.363 19.16C630.923 19.16 629.699 19.592 628.691 20.456C627.707 21.296 627.107 22.424 626.891 23.84H637.799C637.607 22.448 637.019 21.32 636.035 20.456C635.051 19.592 633.827 19.16 632.363 19.16ZM665.904 35V22.256L659.424 32.984H657.48L651.108 22.22V35H647.004V15.776H651.72L658.56 27.8L665.724 15.776H669.936L669.972 35H665.904ZM694.152 15.776L685.152 36.548C684.312 38.636 683.292 40.1 682.092 40.94C680.892 41.804 679.44 42.236 677.736 42.236C676.776 42.236 675.828 42.08 674.892 41.768C673.956 41.456 673.188 41.024 672.588 40.472L674.388 37.16C674.82 37.568 675.324 37.892 675.9 38.132C676.5 38.372 677.1 38.492 677.7 38.492C678.492 38.492 679.14 38.288 679.644 37.88C680.172 37.472 680.652 36.788 681.084 35.828L681.408 35.072L673.02 15.776H677.7L683.748 29.996L689.832 15.776H694.152ZM715.975 35.252C713.983 35.252 712.195 34.832 710.611 33.992C709.027 33.152 707.791 31.988 706.903 30.5C706.015 28.988 705.571 27.284 705.571 25.388C705.571 23.492 706.015 21.8 706.903 20.312C707.791 18.824 709.015 17.66 710.575 16.82C712.159 15.98 713.959 15.56 715.975 15.56C717.871 15.56 719.527 15.944 720.943 16.712C722.383 17.48 723.463 18.584 724.183 20.024L720.727 22.04C720.175 21.152 719.479 20.492 718.639 20.06C717.823 19.604 716.923 19.376 715.939 19.376C714.259 19.376 712.867 19.928 711.763 21.032C710.659 22.112 710.107 23.564 710.107 25.388C710.107 27.212 710.647 28.676 711.727 29.78C712.831 30.86 714.235 31.4 715.939 31.4C716.923 31.4 717.823 31.184 718.639 30.752C719.479 30.296 720.175 29.624 720.727 28.736L724.183 30.752C723.439 32.192 722.347 33.308 720.907 34.1C719.491 34.868 717.847 35.252 715.975 35.252ZM743.197 19.592H736.465V35H731.965V19.592H725.197V15.776H743.197V19.592ZM754.186 35.252C752.242 35.252 750.49 34.832 748.93 33.992C747.37 33.152 746.146 31.988 745.258 30.5C744.394 28.988 743.962 27.284 743.962 25.388C743.962 23.492 744.394 21.8 745.258 20.312C746.146 18.824 747.37 17.66 748.93 16.82C750.49 15.98 752.242 15.56 754.186 15.56C756.154 15.56 757.918 15.98 759.478 16.82C761.038 17.66 762.25 18.824 763.114 20.312C764.002 21.8 764.446 23.492 764.446 25.388C764.446 27.284 764.002 28.988 763.114 30.5C762.25 31.988 761.038 33.152 759.478 33.992C757.918 34.832 756.154 35.252 754.186 35.252ZM754.186 31.4C755.842 31.4 757.21 30.848 758.29 29.744C759.37 28.64 759.91 27.188 759.91 25.388C759.91 23.588 759.37 22.136 758.29 21.032C757.21 19.928 755.842 19.376 754.186 19.376C752.53 19.376 751.162 19.928 750.082 21.032C749.026 22.136 748.498 23.588 748.498 25.388C748.498 27.188 749.026 28.64 750.082 29.744C751.162 30.848 752.53 31.4 754.186 31.4ZM768.891 15.776H773.391V28.448L784.011 15.776H788.115V35H783.615V22.328L773.031 35H768.891V15.776ZM809.397 19.592H802.665V35H798.165V19.592H791.397V15.776H809.397V19.592ZM836.542 24.992C838.918 25.712 840.106 27.248 840.106 29.6C840.106 31.328 839.458 32.66 838.162 33.596C836.866 34.532 834.946 35 832.402 35H822.61V15.776H832.006C834.358 15.776 836.194 16.208 837.514 17.072C838.834 17.936 839.494 19.16 839.494 20.744C839.494 21.728 839.23 22.58 838.702 23.3C838.198 24.02 837.478 24.584 836.542 24.992ZM826.894 23.804H831.61C833.938 23.804 835.102 23 835.102 21.392C835.102 19.832 833.938 19.052 831.61 19.052H826.894V23.804ZM832.042 31.724C834.514 31.724 835.75 30.92 835.75 29.312C835.75 28.472 835.462 27.848 834.886 27.44C834.31 27.008 833.41 26.792 832.186 26.792H826.894V31.724H832.042ZM854.259 22.112C856.707 22.112 858.579 22.664 859.875 23.768C861.171 24.872 861.819 26.432 861.819 28.448C861.819 30.56 861.099 32.192 859.659 33.344C858.243 34.496 856.227 35.06 853.611 35.036L844.899 35V15.776H849.399V22.076L854.259 22.112ZM864.303 15.776H868.803V35H864.303V15.776ZM853.215 31.724C854.535 31.748 855.543 31.472 856.239 30.896C856.935 30.32 857.283 29.48 857.283 28.376C857.283 27.296 856.947 26.504 856.275 26C855.603 25.496 854.583 25.232 853.215 25.208L849.399 25.172V31.688L853.215 31.724ZM885.256 16.712C887.08 16.712 888.688 17.108 890.08 17.9C891.472 18.668 892.552 19.748 893.32 21.14C894.112 22.532 894.508 24.128 894.508 25.928C894.508 27.776 894.076 29.42 893.212 30.86C892.348 32.276 891.136 33.38 889.576 34.172C888.016 34.964 886.24 35.36 884.248 35.36C880.912 35.36 878.332 34.256 876.508 32.048C874.684 29.84 873.772 26.66 873.772 22.508C873.772 18.644 874.6 15.584 876.256 13.328C877.912 11.072 880.444 9.584 883.852 8.864L892.78 6.956L893.428 10.988L885.328 12.644C883 13.124 881.26 13.94 880.108 15.092C878.956 16.244 878.284 17.864 878.092 19.952C878.956 18.92 880 18.128 881.224 17.576C882.448 17 883.792 16.712 885.256 16.712ZM884.356 31.724C886.012 31.724 887.344 31.196 888.352 30.14C889.384 29.06 889.9 27.692 889.9 26.036C889.9 24.38 889.384 23.048 888.352 22.04C887.344 21.032 886.012 20.528 884.356 20.528C882.676 20.528 881.32 21.032 880.288 22.04C879.256 23.048 878.74 24.38 878.74 26.036C878.74 27.716 879.256 29.084 880.288 30.14C881.344 31.196 882.7 31.724 884.356 31.724ZM898.864 15.776H903.364V28.448L913.984 15.776H918.088V35H913.588V22.328L903.004 35H898.864V15.776ZM934.797 15.56C936.669 15.56 938.337 15.968 939.801 16.784C941.289 17.6 942.453 18.752 943.293 20.24C944.133 21.728 944.553 23.444 944.553 25.388C944.553 27.332 944.133 29.06 943.293 30.572C942.453 32.06 941.289 33.212 939.801 34.028C938.337 34.844 936.669 35.252 934.797 35.252C932.205 35.252 930.153 34.388 928.641 32.66V41.984H924.141V15.776H928.425V18.296C929.169 17.384 930.081 16.7 931.161 16.244C932.265 15.788 933.477 15.56 934.797 15.56ZM934.293 31.4C935.949 31.4 937.305 30.848 938.361 29.744C939.441 28.64 939.981 27.188 939.981 25.388C939.981 23.588 939.441 22.136 938.361 21.032C937.305 19.928 935.949 19.376 934.293 19.376C933.213 19.376 932.241 19.628 931.377 20.132C930.513 20.612 929.829 21.308 929.325 22.22C928.821 23.132 928.569 24.188 928.569 25.388C928.569 26.588 928.821 27.644 929.325 28.556C929.829 29.468 930.513 30.176 931.377 30.68C932.241 31.16 933.213 31.4 934.293 31.4ZM955.95 15.56C958.782 15.56 960.942 16.244 962.43 17.612C963.942 18.956 964.698 20.996 964.698 23.732V35H960.45V32.66C959.898 33.5 959.106 34.148 958.074 34.604C957.066 35.036 955.842 35.252 954.402 35.252C952.962 35.252 951.702 35.012 950.622 34.532C949.542 34.028 948.702 33.344 948.102 32.48C947.526 31.592 947.238 30.596 947.238 29.492C947.238 27.764 947.874 26.384 949.146 25.352C950.442 24.296 952.47 23.768 955.23 23.768H960.198V23.48C960.198 22.136 959.79 21.104 958.974 20.384C958.182 19.664 956.994 19.304 955.41 19.304C954.33 19.304 953.262 19.472 952.206 19.808C951.174 20.144 950.298 20.612 949.578 21.212L947.814 17.936C948.822 17.168 950.034 16.58 951.45 16.172C952.866 15.764 954.366 15.56 955.95 15.56ZM955.338 31.976C956.466 31.976 957.462 31.724 958.326 31.22C959.214 30.692 959.838 29.948 960.198 28.988V26.756H955.554C952.962 26.756 951.666 27.608 951.666 29.312C951.666 30.128 951.99 30.776 952.638 31.256C953.286 31.736 954.186 31.976 955.338 31.976ZM985.494 19.592H978.762V35H974.262V19.592H967.494V15.776H985.494V19.592ZM998.406 22.112C1000.85 22.112 1002.73 22.664 1004.02 23.768C1005.34 24.872 1006 26.432 1006 28.448C1006 30.56 1005.28 32.192 1003.84 33.344C1002.4 34.496 1000.37 35.06 997.758 35.036L988.758 35V15.776H993.258V22.076L998.406 22.112ZM997.362 31.724C998.682 31.748 999.69 31.472 1000.39 30.896C1001.08 30.32 1001.43 29.48 1001.43 28.376C1001.43 27.296 1001.09 26.504 1000.42 26C999.75 25.496 998.73 25.232 997.362 25.208L993.258 25.172V31.688L997.362 31.724ZM1019.91 15.776H1024.41V28.448L1035.03 15.776H1039.13V35H1034.63V22.328L1024.05 35H1019.91V15.776ZM1064.08 35V22.256L1057.6 32.984H1055.66L1049.29 22.22V35H1045.18V15.776H1049.9L1056.74 27.8L1063.9 15.776H1068.12L1068.15 35H1064.08ZM1092.19 25.496C1092.19 25.808 1092.16 26.252 1092.12 26.828H1077.03C1077.3 28.244 1077.98 29.372 1079.08 30.212C1080.21 31.028 1081.6 31.436 1083.26 31.436C1085.37 31.436 1087.11 30.74 1088.48 29.348L1090.89 32.12C1090.03 33.152 1088.94 33.932 1087.62 34.46C1086.3 34.988 1084.81 35.252 1083.15 35.252C1081.04 35.252 1079.18 34.832 1077.57 33.992C1075.96 33.152 1074.72 31.988 1073.83 30.5C1072.96 28.988 1072.53 27.284 1072.53 25.388C1072.53 23.516 1072.95 21.836 1073.79 20.348C1074.66 18.836 1075.84 17.66 1077.36 16.82C1078.87 15.98 1080.57 15.56 1082.47 15.56C1084.34 15.56 1086.01 15.98 1087.47 16.82C1088.96 17.636 1090.11 18.8 1090.93 20.312C1091.77 21.8 1092.19 23.528 1092.19 25.496ZM1082.47 19.16C1081.03 19.16 1079.8 19.592 1078.8 20.456C1077.81 21.296 1077.21 22.424 1077 23.84H1087.9C1087.71 22.448 1087.12 21.32 1086.14 20.456C1085.16 19.592 1083.93 19.16 1082.47 19.16ZM1097.11 15.776H1101.61V23.588H1111.29V15.776H1115.79V35H1111.29V27.404H1101.61V35H1097.11V15.776ZM1121.82 15.776H1126.32V23.588H1136.01V15.776H1140.51V35H1136.01V27.404H1126.32V35H1121.82V15.776ZM1155.11 35.252C1153.16 35.252 1151.41 34.832 1149.85 33.992C1148.29 33.152 1147.07 31.988 1146.18 30.5C1145.32 28.988 1144.88 27.284 1144.88 25.388C1144.88 23.492 1145.32 21.8 1146.18 20.312C1147.07 18.824 1148.29 17.66 1149.85 16.82C1151.41 15.98 1153.16 15.56 1155.11 15.56C1157.08 15.56 1158.84 15.98 1160.4 16.82C1161.96 17.66 1163.17 18.824 1164.04 20.312C1164.92 21.8 1165.37 23.492 1165.37 25.388C1165.37 27.284 1164.92 28.988 1164.04 30.5C1163.17 31.988 1161.96 33.152 1160.4 33.992C1158.84 34.832 1157.08 35.252 1155.11 35.252ZM1155.11 31.4C1156.76 31.4 1158.13 30.848 1159.21 29.744C1160.29 28.64 1160.83 27.188 1160.83 25.388C1160.83 23.588 1160.29 22.136 1159.21 21.032C1158.13 19.928 1156.76 19.376 1155.11 19.376C1153.45 19.376 1152.08 19.928 1151 21.032C1149.95 22.136 1149.42 23.588 1149.42 25.388C1149.42 27.188 1149.95 28.64 1151 29.744C1152.08 30.848 1153.45 31.4 1155.11 31.4ZM1179.76 15.776H1184.26V23.588H1193.95V15.776H1198.45V35H1193.95V27.404H1184.26V35H1179.76V15.776ZM1211.64 15.56C1214.47 15.56 1216.63 16.244 1218.12 17.612C1219.63 18.956 1220.39 20.996 1220.39 23.732V35H1216.14V32.66C1215.59 33.5 1214.8 34.148 1213.77 34.604C1212.76 35.036 1211.53 35.252 1210.09 35.252C1208.65 35.252 1207.39 35.012 1206.31 34.532C1205.23 34.028 1204.39 33.344 1203.79 32.48C1203.22 31.592 1202.93 30.596 1202.93 29.492C1202.93 27.764 1203.57 26.384 1204.84 25.352C1206.13 24.296 1208.16 23.768 1210.92 23.768H1215.89V23.48C1215.89 22.136 1215.48 21.104 1214.67 20.384C1213.87 19.664 1212.69 19.304 1211.1 19.304C1210.02 19.304 1208.95 19.472 1207.9 19.808C1206.87 20.144 1205.99 20.612 1205.27 21.212L1203.51 17.936C1204.51 17.168 1205.73 16.58 1207.14 16.172C1208.56 15.764 1210.06 15.56 1211.64 15.56ZM1211.03 31.976C1212.16 31.976 1213.15 31.724 1214.02 31.22C1214.91 30.692 1215.53 29.948 1215.89 28.988V26.756H1211.25C1208.65 26.756 1207.36 27.608 1207.36 29.312C1207.36 30.128 1207.68 30.776 1208.33 31.256C1208.98 31.736 1209.88 31.976 1211.03 31.976ZM1234.71 35.252C1232.71 35.252 1230.93 34.832 1229.34 33.992C1227.76 33.152 1226.52 31.988 1225.63 30.5C1224.75 28.988 1224.3 27.284 1224.3 25.388C1224.3 23.492 1224.75 21.8 1225.63 20.312C1226.52 18.824 1227.75 17.66 1229.31 16.82C1230.89 15.98 1232.69 15.56 1234.71 15.56C1236.6 15.56 1238.26 15.944 1239.67 16.712C1241.11 17.48 1242.19 18.584 1242.91 20.024L1239.46 22.04C1238.91 21.152 1238.21 20.492 1237.37 20.06C1236.55 19.604 1235.65 19.376 1234.67 19.376C1232.99 19.376 1231.6 19.928 1230.49 21.032C1229.39 22.112 1228.84 23.564 1228.84 25.388C1228.84 27.212 1229.38 28.676 1230.46 29.78C1231.56 30.86 1232.97 31.4 1234.67 31.4C1235.65 31.4 1236.55 31.184 1237.37 30.752C1238.21 30.296 1238.91 29.624 1239.46 28.736L1242.91 30.752C1242.17 32.192 1241.08 33.308 1239.64 34.1C1238.22 34.868 1236.58 35.252 1234.71 35.252ZM1250.93 26.648C1250.93 25.352 1251.22 24.284 1251.79 23.444C1252.39 22.58 1253.26 21.644 1254.39 20.636C1255.25 19.868 1255.89 19.208 1256.29 18.656C1256.73 18.08 1256.94 17.432 1256.94 16.712C1256.94 15.704 1256.53 14.888 1255.72 14.264C1254.9 13.64 1253.81 13.328 1252.44 13.328C1249.85 13.328 1247.89 14.252 1246.57 16.1L1243.08 13.832C1244.11 12.416 1245.45 11.336 1247.08 10.592C1248.71 9.824 1250.63 9.44 1252.84 9.44C1255.53 9.44 1257.66 10.028 1259.25 11.204C1260.85 12.356 1261.66 13.952 1261.66 15.992C1261.66 16.976 1261.49 17.84 1261.15 18.584C1260.84 19.328 1260.46 19.964 1260 20.492C1259.55 20.996 1258.95 21.584 1258.2 22.256C1257.29 23.072 1256.61 23.792 1256.15 24.416C1255.72 25.04 1255.5 25.784 1255.5 26.648H1250.93ZM1253.23 35.252C1252.39 35.252 1251.7 34.988 1251.15 34.46C1250.62 33.908 1250.35 33.236 1250.35 32.444C1250.35 31.652 1250.62 30.992 1251.15 30.464C1251.7 29.936 1252.39 29.672 1253.23 29.672C1254.05 29.672 1254.72 29.936 1255.25 30.464C1255.8 30.992 1256.08 31.652 1256.08 32.444C1256.08 33.236 1255.8 33.908 1255.25 34.46C1254.72 34.988 1254.05 35.252 1253.23 35.252Z" fill="black"/>
<rect x="1303" y="17" width="530" height="5" rx="2.5" fill="#8F837C"/>
<rect y="17" width="530" height="5" rx="2.5" fill="#8F837C"/>
</svg>
